<svg width="25" height="25" viewBox="0 0 25 25" fill="none" xmlns="http://www.w3.org/2000/svg">
<mask id="mask0_84_707" style="mask-type:alpha" maskUnits="userSpaceOnUse" x="0" y="0" width="25" height="25">
<rect x="0.281982" y="0.231323" width="24" height="24" fill="#D9D9D9"/>
</mask>
<g mask="url(#mask0_84_707)">
<path d="M13.282 12.6313L9.68198 16.2313C9.49865 16.4147 9.26532 16.5063 8.98198 16.5063C8.69865 16.5063 8.46532 16.4147 8.28198 16.2313C8.09865 16.048 8.00698 15.8147 8.00698 15.5313C8.00698 15.248 8.09865 15.0147 8.28198 14.8313L11.882 11.2313H9.28198C8.99865 11.2313 8.76115 11.1355 8.56948 10.9438C8.37782 10.7522 8.28198 10.5147 8.28198 10.2313C8.28198 9.94799 8.37782 9.71049 8.56948 9.51882C8.76115 9.32716 8.99865 9.23132 9.28198 9.23132H14.282C14.5653 9.23132 14.8028 9.32716 14.9945 9.51882C15.1861 9.71049 15.282 9.94799 15.282 10.2313V15.2313C15.282 15.5147 15.1861 15.7522 14.9945 15.9438C14.8028 16.1355 14.5653 16.2313 14.282 16.2313C13.9986 16.2313 13.7611 16.1355 13.5695 15.9438C13.3778 15.7522 13.282 15.5147 13.282 15.2313V12.6313ZM13.282 5.23132C12.9986 5.23132 12.7611 5.13549 12.5695 4.94382C12.3778 4.75216 12.282 4.51466 12.282 4.23132C12.282 3.94799 12.3778 3.71049 12.5695 3.51882C12.7611 3.32716 12.9986 3.23132 13.282 3.23132H19.282C19.832 3.23132 20.3028 3.42716 20.6945 3.81882C21.0861 4.21049 21.282 4.68132 21.282 5.23132V11.2313C21.282 11.5147 21.1861 11.7522 20.9945 11.9438C20.8028 12.1355 20.5653 12.2313 20.282 12.2313C19.9986 12.2313 19.7611 12.1355 19.5695 11.9438C19.3778 11.7522 19.282 11.5147 19.282 11.2313V5.23132H13.282ZM5.28198 21.2313C4.73198 21.2313 4.26115 21.0355 3.86948 20.6438C3.47782 20.2522 3.28198 19.7813 3.28198 19.2313V4.23132C3.28198 3.94799 3.37782 3.71049 3.56948 3.51882C3.76115 3.32716 3.99865 3.23132 4.28198 3.23132C4.56532 3.23132 4.80282 3.32716 4.99448 3.51882C5.18615 3.71049 5.28198 3.94799 5.28198 4.23132V19.2313H20.282C20.5653 19.2313 20.8028 19.3272 20.9945 19.5188C21.1861 19.7105 21.282 19.948 21.282 20.2313C21.282 20.5147 21.1861 20.7522 20.9945 20.9438C20.8028 21.1355 20.5653 21.2313 20.282 21.2313H5.28198Z" fill="#1C1B1F"/>
</g>
</svg>
