<svg width="1760" height="1760" xmlns="http://www.w3.org/2000/svg" xmlns:xlink="http://www.w3.org/1999/xlink" xml:space="preserve" overflow="hidden"><g transform="translate(-1320 -357)"><g><g><g><path d="M882.072 117.439C881.798 116.906 881.343 116.489 880.788 116.262 816.678 86.8476 749.024 65.873 679.519 53.8629 678.224 53.6221 676.921 54.2391 676.285 55.3932 667.073 72.1136 658.71 89.2882 651.229 106.851 576.306 95.4781 500.095 95.4781 425.172 106.851 417.642 89.2436 409.145 72.0647 399.721 55.3932 399.06 54.2667 397.775 53.6596 396.485 53.8629 326.973 65.8478 259.314 86.8241 195.213 116.264 194.665 116.496 194.201 116.893 193.888 117.4 65.6983 308.835 30.5823 495.563 47.809 679.978 47.9069 680.891 48.3712 681.725 49.0955 682.29 123.739 737.559 207.229 779.745 296.002 807.049 297.282 807.433 298.666 806.98 299.471 805.913 318.538 779.97 335.432 752.499 349.983 723.778 350.765 722.238 350.149 720.354 348.609 719.574 348.498 719.518 348.385 719.468 348.269 719.426 321.629 709.232 295.836 696.944 271.136 682.677 269.627 681.789 269.123 679.847 270.009 678.338 270.219 677.982 270.495 677.671 270.825 677.42 276.008 673.537 281.194 669.498 286.143 665.418 287.039 664.68 288.277 664.514 289.338 664.988 451.161 738.84 626.355 738.84 786.263 664.988 787.325 664.482 788.587 664.635 789.498 665.38 794.449 669.459 799.633 673.537 804.855 677.42 806.256 678.468 806.543 680.454 805.494 681.855 805.247 682.186 804.937 682.465 804.582 682.677 779.938 697.065 754.123 709.344 727.412 719.387 725.784 720.006 724.967 721.827 725.586 723.455 725.628 723.566 725.676 723.674 725.73 723.778 740.524 752.339 757.394 779.775 776.203 805.867 776.987 806.965 778.382 807.44 779.672 807.044 868.604 779.832 952.241 737.641 1026.98 682.29 1027.71 681.754 1028.18 680.925 1028.26 680.017 1048.89 466.813 993.737 281.616 882.072 117.439ZM374.15 567.688C325.429 567.688 285.285 522.978 285.285 468.069 285.285 413.16 324.651 368.447 374.15 368.447 424.036 368.447 463.791 413.549 463.013 468.066 463.013 522.978 423.646 567.688 374.15 567.688ZM702.709 567.688C653.99 567.688 613.846 522.978 613.846 468.069 613.846 413.16 653.211 368.447 702.709 368.447 752.598 368.447 792.352 413.549 791.573 468.066 791.573 522.978 752.598 567.688 702.709 567.688Z" fill="#5865F2" transform="matrix(1.00534 0 0 1 1659 807)"/></g></g></g></g></svg>