<svg width="1760" height="1760" xmlns="http://www.w3.org/2000/svg" xmlns:xlink="http://www.w3.org/1999/xlink" xml:space="preserve" overflow="hidden"><g transform="translate(-1320 -357)"><g><g><g><path d="M846.563 430C846.563 199.883 660.117 13.4375 430 13.4375 199.883 13.4375 13.4375 199.883 13.4375 430 13.4375 637.912 165.768 810.248 364.912 841.523L364.912 550.417 259.092 550.417 259.092 430 364.912 430 364.912 338.222C364.912 233.829 427.061 176.166 522.248 176.166 567.835 176.166 615.505 184.295 615.505 184.295L615.505 286.756 562.964 286.756C511.23 286.756 495.088 318.872 495.088 351.811L495.088 430 610.617 430 592.14 550.417 495.088 550.417 495.088 841.523C694.232 810.248 846.563 637.912 846.563 430Z" fill="#0080FF" transform="matrix(1 0 0 1.00116 1770 807)"/></g></g></g></g></svg>