<svg width="1760" height="1760" xmlns="http://www.w3.org/2000/svg" xmlns:xlink="http://www.w3.org/1999/xlink" xml:space="preserve" overflow="hidden"><defs><radialGradient cx="158.429" cy="578.088" r="65" gradientUnits="userSpaceOnUse" spreadMethod="pad" id="fill0" gradientTransform="matrix(0 -12.9129 12.0133 0 -6719.74 2957.91)"><stop offset="0" stop-color="#FFDD55"/><stop offset="0.1" stop-color="#FFDD55"/><stop offset="0.5" stop-color="#FF543E"/><stop offset="1" stop-color="#C837AB"/></radialGradient><radialGradient cx="147.694" cy="473.455" r="65" gradientUnits="userSpaceOnUse" spreadMethod="pad" id="fill1" gradientTransform="matrix(1.13325 5.65984 -23.336 4.67254 10739.2 -2987.15)"><stop offset="0" stop-color="#3771C8"/><stop offset="0.128" stop-color="#3771C8"/><stop offset="1" stop-color="#6600FF" stop-opacity="0"/></radialGradient></defs><g transform="translate(-1320 -357)"><g><g><g><path d="M423.68 0C246.846 0 195.129 0.182424 185.076 1.01636 148.787 4.03288 126.205 9.74667 101.604 21.9952 82.6447 31.4095 67.6924 42.3224 52.9356 57.62 26.0606 85.5179 9.77273 119.84 3.87652 160.638 1.00985 180.444 0.175909 184.483 0.00651515 285.65-0.0586364 319.373 0.00651515 363.754 0.00651515 423.283 0.00651515 599.974 0.20197 651.639 1.04894 661.672 3.98076 696.984 9.51864 719.201 21.2459 743.503 43.658 790.021 86.4626 824.942 136.89 837.972 154.35 842.468 173.635 844.944 198.393 846.116 208.882 846.572 315.796 846.898 422.775 846.898 529.753 846.898 636.732 846.768 646.961 846.247 675.628 844.898 692.274 842.663 710.679 837.907 761.432 824.812 803.455 790.412 826.323 743.242 837.822 719.527 843.654 696.463 846.292 662.995 846.865 655.698 847.107 539.357 847.107 423.172 847.107 306.968 846.846 190.842 846.273 183.545 843.601 149.536 837.77 126.668 825.9 102.496 816.16 82.7099 805.344 67.9335 789.643 52.8249 761.621 26.0606 727.352 9.77273 686.515 3.88303 666.728 1.02288 662.786 0.175909 561.541 0L423.68 0Z" fill="url(#fill0)" transform="matrix(1 0 0 1.00116 1776.54 813.523)"/><path d="M423.68 0C246.846 0 195.129 0.182424 185.076 1.01636 148.787 4.03288 126.205 9.74667 101.604 21.9952 82.6447 31.4095 67.6924 42.3224 52.9356 57.62 26.0606 85.5179 9.77273 119.84 3.87652 160.638 1.00985 180.444 0.175909 184.483 0.00651515 285.65-0.0586364 319.373 0.00651515 363.754 0.00651515 423.283 0.00651515 599.974 0.20197 651.639 1.04894 661.672 3.98076 696.984 9.51864 719.201 21.2459 743.503 43.658 790.021 86.4626 824.942 136.89 837.972 154.35 842.468 173.635 844.944 198.393 846.116 208.882 846.572 315.796 846.898 422.775 846.898 529.753 846.898 636.732 846.768 646.961 846.247 675.628 844.898 692.274 842.663 710.679 837.907 761.432 824.812 803.455 790.412 826.323 743.242 837.822 719.527 843.654 696.463 846.292 662.995 846.865 655.698 847.107 539.357 847.107 423.172 847.107 306.968 846.846 190.842 846.273 183.545 843.601 149.536 837.77 126.668 825.9 102.496 816.16 82.7099 805.344 67.9335 789.643 52.8249 761.621 26.0606 727.352 9.77273 686.515 3.88303 666.728 1.02288 662.786 0.175909 561.541 0L423.68 0Z" fill="url(#fill1)" transform="matrix(1 0 0 1.00116 1776.54 813.523)"/><path d="M430.026 117.273C345.095 117.273 334.436 117.644 301.078 119.162 267.786 120.687 245.061 125.957 225.177 133.691 204.608 141.678 187.161 152.363 169.778 169.752 152.383 187.135 141.698 204.582 133.684 225.144 125.931 245.035 120.654 267.766 119.156 301.046 117.664 334.403 117.273 345.069 117.273 430 117.273 514.932 117.651 525.558 119.162 558.915 120.693 592.208 125.964 614.933 133.691 634.817 141.685 655.385 152.37 672.833 169.759 690.215 187.135 707.611 204.582 718.322 225.138 726.309 245.035 734.043 267.766 739.313 301.052 740.838 334.41 742.356 345.062 742.727 429.987 742.727 514.925 742.727 525.551 742.356 558.909 740.838 592.201 739.313 614.952 734.043 634.849 726.309 655.411 718.322 672.833 707.611 690.209 690.215 707.604 672.833 718.289 655.385 726.303 634.823 733.99 614.933 739.268 592.201 740.831 558.922 742.33 525.564 742.721 514.932 742.721 430 742.721 345.069 742.33 334.41 740.831 301.052 739.268 267.76 733.99 245.035 726.303 225.151 718.289 204.582 707.604 187.135 690.209 169.752 672.813 152.357 655.418 141.672 634.83 133.691 614.893 125.957 592.156 120.687 558.863 119.162 525.506 117.644 514.886 117.273 429.928 117.273ZM401.972 173.629C410.298 173.616 419.589 173.629 430.026 173.629 513.524 173.629 523.421 173.928 556.394 175.427 586.885 176.821 603.433 181.916 614.457 186.197 629.051 191.865 639.456 198.64 650.395 209.586 661.34 220.531 668.116 230.956 673.797 245.55 678.078 256.56 683.179 273.109 684.567 303.6 686.065 336.566 686.391 346.469 686.391 429.928 686.391 513.388 686.065 523.29 684.567 556.257 683.172 586.748 678.078 603.297 673.797 614.307 668.129 628.901 661.34 639.293 650.395 650.232 639.449 661.177 629.057 667.953 614.457 673.621 603.446 677.921 586.885 683.003 556.394 684.397 523.427 685.896 513.524 686.221 430.026 686.221 346.521 686.221 336.625 685.896 303.658 684.397 273.167 682.99 256.619 677.895 245.589 673.615 230.995 667.946 220.57 661.171 209.625 650.225 198.68 639.28 191.904 628.882 186.223 614.281 181.942 603.271 176.841 586.722 175.453 556.231 173.955 523.264 173.655 513.361 173.655 429.85 173.655 346.339 173.955 336.488 175.453 303.521 176.847 273.03 181.942 256.482 186.223 245.458 191.891 230.864 198.68 220.44 209.625 209.495 220.57 198.549 230.995 191.773 245.589 186.092 256.612 181.792 273.167 176.71 303.658 175.31 332.507 174.007 343.687 173.616 401.972 173.551ZM596.957 225.555C576.239 225.555 559.43 242.344 559.43 263.069 559.43 283.787 576.239 300.596 596.957 300.596 617.675 300.596 634.485 283.787 634.485 263.069 634.485 242.351 617.675 225.542 596.957 225.542ZM430.026 269.402C341.335 269.402 269.428 341.309 269.428 430 269.428 518.691 341.335 590.566 430.026 590.566 518.717 590.566 590.599 518.691 590.599 430 590.599 341.309 518.71 269.402 430.02 269.402ZM430.026 325.758C487.594 325.758 534.268 372.426 534.268 430 534.268 487.568 487.594 534.242 430.026 534.242 372.452 534.242 325.784 487.568 325.784 430 325.784 372.426 372.452 325.758 430.026 325.758Z" fill="#FFFFFF" transform="matrix(1 0 0 1.00116 1770 807)"/></g></g></g></g></svg>