<svg width="1760" height="1760" xmlns="http://www.w3.org/2000/svg" xmlns:xlink="http://www.w3.org/1999/xlink" xml:space="preserve" overflow="hidden"><g transform="translate(-1320 -357)"><g><g><g><path d="M215.2 53.8C155.852 53.8 107.6 102.052 107.6 161.4L107.6 591.8 215.2 591.8 215.2 161.4 860.8 161.4 860.8 591.8 968.4 591.8 968.4 161.4C968.4 102.052 920.148 53.8 860.8 53.8L215.2 53.8ZM32.28 645.6C14.4587 645.6 0 660.059 0 677.88 0 749.165 57.835 807 129.12 807L946.88 807C1018.16 807 1076 749.165 1076 677.88 1076 660.059 1061.54 645.6 1043.72 645.6L32.28 645.6Z" transform="matrix(1 0 0 1.00023 1662 807)"/></g></g></g></g></svg>