<svg width="1760" height="1760" xmlns="http://www.w3.org/2000/svg" xmlns:xlink="http://www.w3.org/1999/xlink" xml:space="preserve" overflow="hidden"><g transform="translate(-1320 -357)"><g><g><g><path d="M698.286 53.7143 53.5464 53.7143C24.0036 53.7143 0 78.0536 0 107.932L0 751.497C0 781.375 24.0036 805.714 53.5464 805.714L698.286 805.714C727.829 805.714 752 781.375 752 751.497L752 107.932C752 78.0536 727.829 53.7143 698.286 53.7143ZM227.279 698.286 115.821 698.286 115.821 339.407 227.446 339.407 227.446 698.286ZM171.55 290.393C135.796 290.393 106.925 261.354 106.925 225.768 106.925 190.182 135.796 161.143 171.55 161.143 207.136 161.143 236.175 190.182 236.175 225.768 236.175 261.521 207.304 290.393 171.55 290.393ZM645.075 698.286 533.618 698.286 533.618 523.714C533.618 482.086 532.779 428.539 475.707 428.539 417.629 428.539 408.732 473.861 408.732 520.693L408.732 698.286 297.275 698.286 297.275 339.407 404.2 339.407 404.2 388.421 405.711 388.421C420.65 360.221 457.075 330.511 511.293 330.511 624.093 330.511 645.075 404.871 645.075 501.557L645.075 698.286Z" fill="#0066C8" transform="matrix(1 0 0 1.00183 1824 807)"/></g></g></g></g></svg>