<svg width="1760" height="1760" xmlns="http://www.w3.org/2000/svg" xmlns:xlink="http://www.w3.org/1999/xlink" xml:space="preserve" overflow="hidden"><g transform="translate(-1320 -357)"><g><g><g><path d="M834.68 615.773C829.015 600.361 818.22 592.113 805.938 585.282 803.626 583.928 801.502 582.845 799.689 582.012 796.024 580.117 792.275 578.283 788.546 576.346 750.249 556.039 720.336 530.422 699.592 500.055 693.7 491.506 688.59 482.444 684.325 472.978 682.555 467.917 682.645 465.043 683.908 462.418 685.168 460.396 686.835 458.658 688.803 457.315 695.384 452.963 702.173 448.547 706.776 445.569 714.981 440.258 721.48 436.05 725.665 433.072 741.391 422.075 752.388 410.396 759.259 397.332 768.965 379.076 770.252 357.502 762.786 338.222 752.372 310.813 726.483 293.796 695.117 293.796 688.501 293.79 681.903 294.488 675.434 295.879 673.706 296.255 671.976 296.65 670.289 297.088 670.582 278.343 670.165 258.556 668.499 239.082 662.583 170.621 638.611 134.734 613.617 106.118 597.614 88.1845 578.764 73.0127 557.824 61.2129 519.889 39.5516 476.88 28.5547 430 28.5547 383.12 28.5547 340.305 39.5516 302.344 61.2129 281.352 73.0165 262.462 88.2183 246.442 106.2 221.448 134.818 197.476 170.767 191.562 239.166 189.895 258.64 189.479 278.529 189.749 297.17 188.07 296.734 186.355 296.33 184.625 295.963 178.157 294.572 171.559 293.873 164.944 293.88 133.555 293.88 107.624 310.897 97.2522 338.306 89.751 357.593 91.0053 379.189 100.689 397.478 107.584 410.536 118.581 422.221 134.306 433.218 138.472 436.134 144.991 440.34 153.196 445.715 157.632 448.589 164.114 452.797 170.463 457.003 172.686 458.44 174.576 460.336 176.006 462.564 177.34 465.292 177.38 468.23 175.401 473.65 171.193 482.916 166.168 491.789 160.385 500.164 140.099 529.842 111.064 555.002 73.9919 575.144 54.3463 585.553 33.9297 592.51 25.3112 615.941 18.8142 633.625 23.0621 653.745 39.5785 670.699 45.6401 677.027 52.6709 682.35 60.4066 686.466 76.5019 695.312 93.6169 702.159 111.372 706.856 115.036 707.801 118.515 709.358 121.661 711.46 127.68 716.729 126.826 724.664 134.845 736.286 138.87 742.293 143.984 747.493 149.924 751.617 166.753 763.238 185.664 763.967 205.701 764.737 223.802 765.425 244.316 766.216 267.747 773.943 277.452 777.151 287.534 783.358 299.218 790.605 327.274 807.847 365.68 831.445 429.955 831.445 494.23 831.445 532.906 807.723 561.169 790.414 572.77 783.292 582.789 777.144 592.224 774.024 615.654 766.275 636.17 765.504 654.27 764.817 674.306 764.046 693.217 763.317 710.046 751.695 717.081 746.791 722.942 740.389 727.209 732.95 732.977 723.141 732.833 716.289 738.248 711.499 741.199 709.497 744.466 708.004 747.911 707.083 765.909 702.37 783.257 695.459 799.565 686.505 807.783 682.096 815.181 676.305 821.433 669.384L821.641 669.134C837.138 652.559 841.033 633.019 834.68 615.773ZM777.549 646.473C742.704 665.719 719.545 663.656 701.528 675.258 686.22 685.109 695.28 706.354 684.157 714.018 670.494 723.453 630.11 713.347 577.935 730.577 534.905 744.802 507.454 785.707 430.059 785.707 352.664 785.707 325.858 744.891 282.119 730.473 230.048 713.247 189.581 723.349 175.897 713.914 164.796 706.25 173.814 685.005 158.527 675.154 140.489 663.552 117.33 665.615 82.5046 646.473 60.3226 634.227 72.9035 626.653 80.2975 623.063 206.514 561.955 226.654 467.605 227.549 460.606 228.632 452.13 229.84 445.465 220.509 436.841 211.491 428.51 171.481 403.752 160.377 395.998 142.006 383.169 133.925 370.359 139.884 354.614 144.05 343.721 154.214 339.618 164.876 339.618 168.247 339.628 171.607 340.005 174.896 340.743 195.052 345.11 214.636 355.217 225.945 357.946 227.307 358.296 228.705 358.484 230.11 358.509 236.157 358.509 238.274 355.467 237.857 348.554 236.567 326.496 233.443 283.508 236.92 243.331 241.69 188.054 259.498 160.665 280.659 136.443 290.823 124.799 338.581 74.3346 429.911 74.3346 521.241 74.3346 569.124 124.591 579.287 136.192 600.47 160.415 618.298 187.804 623.026 243.081 626.505 283.257 623.505 326.268 622.089 348.303 621.61 355.571 623.797 358.259 629.837 358.259 631.243 358.236 632.642 358.047 634.003 357.696 645.333 354.968 664.909 344.867 685.066 340.493 688.354 339.755 691.713 339.378 695.083 339.367 705.81 339.367 715.911 343.533 720.077 354.364 726.033 370.109 717.994 382.918 699.603 395.75 688.502 403.496 648.492 428.24 639.471 436.591 630.118 445.215 631.348 451.876 632.431 460.357 633.326 467.459 653.446 561.81 779.682 622.813 787.15 626.542 799.731 634.122 777.549 646.473Z" transform="matrix(1 0 0 1.00116 1770 807)"/></g></g></g></g></svg>