<svg width="1760" height="1760" xmlns="http://www.w3.org/2000/svg" xmlns:xlink="http://www.w3.org/1999/xlink" xml:space="preserve" overflow="hidden"><g transform="translate(-1320 -357)"><g><g><g><path d="M415 13.3871C185.801 13.3871 0 199.188 0 428.387 0 657.586 185.801 843.387 415 843.387 644.199 843.387 830 657.586 830 428.387 830 199.188 644.199 13.3871 415 13.3871ZM607.359 295.621C601.114 361.242 574.09 520.487 560.337 593.985 554.52 625.084 543.064 635.512 531.976 636.531 507.88 638.75 489.576 620.606 466.234 605.304 429.709 581.361 409.074 566.456 373.619 543.093 332.646 516.093 359.208 501.258 382.558 476.994 388.669 470.647 494.854 374.064 496.909 365.302 497.165 364.206 497.411 360.115 494.978 357.966 492.545 355.817 488.97 356.545 486.385 357.129 482.722 357.961 424.373 396.529 311.335 472.83 294.774 484.203 279.774 489.743 266.331 489.454 251.513 489.134 223.011 481.077 201.82 474.188 175.831 465.74 155.175 461.274 156.974 446.926 157.911 439.451 168.202 431.811 187.848 424.001 308.829 371.291 389.503 336.542 429.866 319.749 545.116 271.812 569.064 263.485 584.673 263.207 588.107 263.15 595.783 264 600.754 268.035 604.061 270.908 606.169 274.919 606.661 279.273 607.503 284.68 607.737 290.162 607.359 295.621Z" fill="#28A7E8" transform="matrix(1 0 0 1.00026 1785 809)"/></g></g></g></g></svg>