<svg width="1760" height="1760" xmlns="http://www.w3.org/2000/svg" xmlns:xlink="http://www.w3.org/1999/xlink" xml:space="preserve" overflow="hidden"><g transform="translate(-1320 -357)"><g><g><g><path d="M752 352.349C678.101 352.526 606.013 329.479 545.922 286.465L545.922 586.459C545.867 737.151 423.662 859.266 272.97 859.211 122.278 859.156 0.162931 736.951 0.218264 586.259 0.273598 435.567 122.478 313.452 273.17 313.507 285.67 313.512 298.155 314.375 310.536 316.092L310.536 466.979C244.547 446.222 174.226 482.89 153.469 548.879 132.712 614.868 169.38 685.189 235.369 705.946 301.358 726.702 371.679 690.034 392.436 624.045 396.262 611.883 398.208 599.209 398.208 586.459L398.208 0 545.922 0C545.819 12.4741 546.864 24.9313 549.044 37.2139L549.044 37.2139C559.418 92.6289 592.146 141.33 639.536 171.869 672.896 193.927 712.007 205.684 752 205.675Z" transform="matrix(1 0 0 1.00183 1824 807)"/></g></g></g></g></svg>