<svg width="1760" height="1760" xmlns="http://www.w3.org/2000/svg" xmlns:xlink="http://www.w3.org/1999/xlink" xml:space="preserve" overflow="hidden"><g transform="translate(-1320 -357)"><g><g><g><path d="M923.726 208.528C913.17 168.783 882.07 137.481 842.582 126.858 771.007 107.556 484 107.556 484 107.556 484 107.556 196.995 107.556 125.418 126.858 85.9302 137.483 54.8298 168.783 44.2742 208.528 25.0957 280.569 25.0957 430.874 25.0957 430.874 25.0957 430.874 25.0957 581.18 44.2742 653.22 54.8298 692.965 85.9302 722.963 125.418 733.586 196.995 752.889 484 752.889 484 752.889 484 752.889 771.005 752.889 842.582 733.586 882.07 722.963 913.17 692.965 923.726 653.22 942.904 581.18 942.904 430.874 942.904 430.874 942.904 430.874 942.904 280.569 923.726 208.528ZM390.133 567.34 390.133 294.408 630.013 430.878 390.133 567.34Z" fill="#FF0101" transform="matrix(1 0 0 1.00065 1716 807)"/></g></g></g></g></svg>